<svg xmlns="http://www.w3.org/2000/svg" version="1.1" xmlns:xlink="http://www.w3.org/1999/xlink" xmlns:svgjs="http://svgjs.dev/svgjs" width="181.56" height="117.04"><svg id="SvgjsSvg1010" data-name="Layer 1" xmlns="http://www.w3.org/2000/svg" viewBox="0 0 181.56 117.04">
  <defs>
    <style>
      .cls-1 {
        fill: #ed6d05;
      }
    </style>
  </defs>
  <path class="cls-1" d="M48.02,0v4.44c4.71.17,7.88.57,9.53,1.21s2.48,2.16,2.48,4.55c0,1.23-.19,2.66-.56,4.3s-.86,3.55-1.49,5.73l-16.93,63.78s-5.85,21.17-13.96,18.46c0,0-1.58-.22-3.38-4.28-1.8-4.06-10.58-13.29-20.04-5.63-10.34,8.36,2.48,28.84,21.39,23.65,0,0,10.58-1.58,17.12-13.96,9.74-26.18,15.93-53.49,23.19-80.43l11.2,95.05h4.63l62.37-97.81-20.92,78.82c-1.3,5.02-2.98,8.18-5.06,9.49s-5.91,2.25-11.48,2.81v4.43h51.91v-4.43c-4.92-.45-8.18-1.05-9.78-1.8-1.59-.75-2.39-2.55-2.39-5.39,0-1.17.18-2.62.53-4.35s.77-3.43,1.26-5.1l20.45-77.07c1.3-4.79,3.13-8.03,5.52-9.7,1.51-1.06,4.16-1.83,7.95-2.34V0h-35.32l-50.73,80.77L86,0h-37.98Z"></path>
</svg><style>@media (prefers-color-scheme: light) { :root { filter: contrast(1) brightness(1); } }
@media (prefers-color-scheme: dark) { :root { filter: none; } }
</style></svg>