<?xml version="1.0" encoding="UTF-8"?>
<svg id="Layer_1" data-name="Layer 1" xmlns="http://www.w3.org/2000/svg" viewBox="0 0 444.99 133.83">
  <defs>
    <style>
      .cls-1 {
        fill: #ed6d05;
      }
    </style>
  </defs>
  <path id="path1" class="cls-1" d="M42.96,0v3.97c4.21.15,7.05.51,8.53,1.08,1.48.57,2.22,1.93,2.22,4.07,0,1.1-.17,2.38-.5,3.85s-.77,3.18-1.33,5.13l-15.15,57.06s-5.23,18.94-12.49,16.52c0,0-1.41-.2-3.02-3.83-1.61-3.63-9.47-11.89-17.93-5.04-9.25,7.48,2.22,25.8,19.14,21.16,0,0,9.47-1.41,15.32-12.49,8.71-23.42,14.25-47.86,20.75-71.96l10.02,85.04h4.14l55.8-87.51-18.72,70.52c-1.16,4.49-2.67,7.32-4.53,8.49s-5.29,2.01-10.27,2.51v3.96h46.44v-3.96c-4.4-.4-7.32-.94-8.75-1.61-1.42-.67-2.14-2.28-2.14-4.82,0-1.05.16-2.34.47-3.89s.69-3.07,1.13-4.56l18.3-68.95c1.16-4.29,2.8-7.18,4.94-8.68,1.35-.95,3.72-1.64,7.11-2.09V0h-31.6l-45.39,72.26L76.94,0h-33.98ZM282.78,13.37c-10.24.02-17.84,10.02-21.12,16.05-.38.69-.75,1.52-1.12,2.4-9.66.06-17.46,2.93-23.38,8.6-6,5.74-8.99,11.83-8.99,18.26,0,4.29.99,7.96,2.97,11,1.98,3.05,5.03,5.32,9.14,6.81-5.55,2.99-9.36,5.52-11.44,7.6-2.08,2.07-3.12,4.38-3.12,6.92,0,3.15,1.14,5.67,3.41,7.56,1.19,1.05,3.03,2.02,5.5,2.92-6.29,1.84-10.67,3.52-13.15,5.02-4.46,2.74-6.69,6.31-6.69,10.7,0,6.78,4.19,11.53,12.56,14.22,4.86,1.6,10.57,2.4,17.16,2.4,10.06,0,18.48-2.15,25.26-6.44,6.79-4.29,10.18-9.68,10.18-16.17,0-5.79-2.55-10.32-7.65-13.62-2.97-1.95-8-3.94-15.08-5.99l-8.1-2.32c-1.64-.5-3.02-1.07-4.16-1.72-2.43-1.3-3.64-2.77-3.64-4.42,0-.9.43-1.97,1.3-3.22s1.7-1.87,2.49-1.87c3.17.55,5.89.82,8.18.82,10.45,0,18.55-2.63,24.33-7.9,5.77-5.26,8.65-11.58,8.65-18.97,0-1.2-.07-2.27-.22-3.22s-.31-2.26-.67-3.37c-1.1-3.33-3.06-6.7-5.98-8.65-1.41-.94-3.34-1.86-5.13-2.5-3-1.09-5.88-1.95-9.31-2.28,2.19-4.1,5.01-7.59,8.61-9.04,0,0,5.24-1.81,6.05,3.43.8,5.24,2.01,11.28,11.29,9.47,9.27-1.81,7.05-19.75-4.84-22.17-1.11-.23-2.2-.33-3.26-.33l-.03.02ZM190.78,31.81c-9.5,0-18.85,6.06-28.05,18.19-8.9,11.83-13.36,23.38-13.36,34.66,0,7.29,1.73,12.45,5.2,15.49,3.47,3.05,7.21,4.57,11.22,4.57,4.46,0,8.51-1.42,12.15-4.27,3.64-2.84,6.8-6.31,9.47-10.4,1.19-1.74,2.07-3.07,2.64-3.97.25-.4.4-.65.51-.83-1.25,4.91-1.88,8.02-1.88,9.29,0,3.39,1.09,5.96,3.27,7.71,2.18,1.74,4.43,2.62,6.76,2.62,3.82,0,7.59-1.72,11.33-5.17,3.74-3.44,7.67-8.2,11.78-14.3l-3.2-2.32c-.79,1.05-1.78,2.34-2.97,3.86s-2.03,2.56-2.52,3.11c-1.04,1.25-1.98,2.21-2.82,2.88s-1.71,1.01-2.6,1.01c-.5,0-.94-.17-1.34-.52s-.6-.97-.6-1.87c0-2.19.67-5.86,2.01-11,.6-2.69,1.6-6.59,3.01-11.68l9.9-35.85-15.88,1.12-2.58,8.16c-.84-3.29-1.81-5.64-2.9-7.04-1.83-2.29-4.68-3.44-8.53-3.44h-.02ZM413.98,31.81c-9.5,0-18.85,6.06-28.05,18.19-8.91,11.83-13.36,23.38-13.36,34.66,0,7.29,1.73,12.45,5.2,15.49,3.46,3.05,7.2,4.57,11.22,4.57,4.46,0,8.5-1.42,12.14-4.27,3.64-2.84,6.8-6.31,9.47-10.4,1.19-1.74,2.07-3.07,2.64-3.97.25-.4.4-.65.5-.83-1.25,4.9-1.88,8.01-1.88,9.29,0,3.39,1.09,5.96,3.27,7.71,2.18,1.74,4.43,2.62,6.76,2.62,3.81,0,7.59-1.72,11.33-5.17,3.74-3.44,7.66-8.2,11.77-14.3l-3.19-2.32c-.79,1.05-1.78,2.34-2.97,3.86s-2.03,2.56-2.53,3.11c-1.04,1.25-1.98,2.21-2.82,2.88s-1.71,1.01-2.6,1.01c-.49,0-.94-.17-1.34-.52s-.59-.97-.59-1.87c0-2.19.67-5.86,2-11,.59-2.69,1.59-6.59,3-11.68l9.91-35.85-15.89,1.12-2.58,8.16c-.84-3.29-1.81-5.64-2.9-7.04-1.83-2.29-4.68-3.44-8.53-3.44h.02ZM327.53,31.96c-6.94,1.35-12.16,2.27-15.66,2.77-3.49.5-8.4.95-14.7,1.35v4.04c3.27.1,5.47.38,6.61.83,1.14.45,1.71,1.6,1.71,3.44,0,.85-.25,2.34-.74,4.49-.25,1.15-.65,2.72-1.19,4.72l-13.3,48.95h18.32c2.42-9.03,4.5-16.24,6.24-21.63s3.91-10.7,6.52-15.94c2.41-4.84,5.51-9.69,9.29-14.56,3.79-4.86,7.23-7.3,10.33-7.3.88,0,1.71.22,2.47.67s1.15,1.25,1.15,2.4c0,.4-.05.8-.15,1.2-.09.4-.22.87-.37,1.42l-6.95,22.91c-1.34,4.44-2.53,8.75-3.57,12.95-1.04,4.19-1.56,7.38-1.56,9.58,0,3.44,1.07,5.96,3.21,7.56,2.14,1.6,4.56,2.4,7.24,2.4,5.04,0,9.8-2.32,14.3-6.96,2.59-2.69,5.74-7.11,9.46-13.25l-3.34-2.17c-1.63,2.64-3.14,4.86-4.53,6.66-2.63,3.39-4.61,5.09-5.94,5.09-.54,0-1.09-.24-1.63-.71-.55-.47-.82-1.16-.82-2.05,0-.95,2.26-8.04,6.78-21.26,4.46-13.27,6.69-21.86,6.69-25.75,0-4.19-1.14-7.21-3.4-9.06-2.27-1.84-5.02-2.77-8.26-2.77-3.49,0-6.81.91-9.98,2.73-3.16,1.82-6.19,4.25-9.08,7.3-2.94,2.99-6.03,6.9-9.27,11.71-3.24,4.82-4.73,7.1-4.49,6.85l-.4-.23,9.02-28.37h0ZM262.79,36.72c1.75.28,3.06,1.11,3.93,2.5,1.09,1.74,1.63,3.96,1.63,6.64,0,5.93-1.55,12.14-4.64,18.64-3.1,6.5-6.79,9.74-11.11,9.74-1.98,0-3.61-.72-4.9-2.16-1.29-1.45-1.93-3.56-1.93-6.35,0-5.48,1.43-11.7,4.27-18.68,2.28-5.58,5.16-8.93,8.63-10.04-2.32,7.35-4.07,15.97-4.07,15.97h3.83s1.19-8.3,4.35-16.27h.01ZM192.66,38.25c2.57,0,4.33,1.15,5.27,3.44.49,1.25.74,2.87.74,4.86,0,6.64-2.28,15.62-6.83,26.95-6.38,13.52-12.1,20.26-17.14,20.21-1.98,0-3.58-.9-4.79-2.7-1.21-1.8-1.82-3.91-1.82-6.36,0-6.18,2.55-15.09,7.65-26.72,5.78-13.13,11.43-19.69,16.92-19.69h0ZM415.86,38.25c2.57,0,4.33,1.15,5.27,3.44.49,1.25.74,2.87.74,4.86,0,6.64-2.28,15.62-6.83,26.95-6.38,13.52-12.09,20.26-17.14,20.21-1.98,0-3.57-.9-4.78-2.7s-1.82-3.91-1.82-6.36c0-6.18,2.55-15.09,7.64-26.72,5.79-13.13,11.43-19.69,16.92-19.69h0ZM239.6,103.45c1.92.47,1.6.26,7.24,2.13,3.84,1.27,6.62,2.26,8.36,2.96,2.53,1.05,4.52,2.27,5.98,3.67,1.46,1.4,2.2,3.32,2.2,5.76,0,3.14-1.55,5.71-4.65,7.71s-7.39,3-12.89,3c-6.98,0-11.99-1.7-15.01-5.09-1.83-1.99-2.75-4.19-2.75-6.59,0-3.84,1.98-7.21,5.94-10.1,2.97-2.17,4.83-3.31,5.57-3.44h.01Z"/>
</svg>